<svg width="512" height="512" viewBox="0 0 512 512" xmlns="http://www.w3.org/2000/svg">
  <rect width="512" height="512" rx="100" fill="#060b14"/>
  
  <!-- Arcos externos (disco de acréscimo, rotação lenta) -->
  <ellipse cx="256" cy="256" rx="240" ry="55" fill="none" stroke="#06b6d4" stroke-width="3" opacity="0.15" transform="rotate(-12, 256, 256)"/>
  <ellipse cx="256" cy="256" rx="220" ry="52" fill="none" stroke="#06b6d4" stroke-width="3" opacity="0.2" transform="rotate(-0.85, 256, 256)"/>
  <ellipse cx="256" cy="256" rx="200" ry="48" fill="none" stroke="#06b6d4" stroke-width="4" opacity="0.3" transform="rotate(12, 256, 256)"/>
  
  <!-- Arcos médios -->
  <ellipse cx="256" cy="256" rx="160" ry="42" fill="none" stroke="#06b6d4" stroke-width="5" opacity="0.5" transform="rotate(24.86, 256, 256)"/>
  <ellipse cx="256" cy="256" rx="130" ry="38" fill="none" stroke="#06b6d4" stroke-width="6" opacity="0.65" transform="rotate(37.727, 256, 256)"/>
  
  <!-- Arcos internos -->
  <ellipse cx="256" cy="256" rx="90" ry="30" fill="none" stroke="#06b6d4" stroke-width="8" opacity="0.8" transform="rotate(50.587, 256, 256)"/>
  <ellipse cx="256" cy="256" rx="55" ry="24" fill="none" stroke="#06b6d4" stroke-width="10" opacity="0.95" transform="rotate(63.44, 256, 256)"/>
  
  <!-- Singularidade -->
  <circle cx="256" cy="256" r="18" fill="#06b6d4"/>
  <circle cx="256" cy="256" r="9" fill="#22d3ee"/>
  <circle cx="256" cy="256" r="4" fill="#ffffff"/>
  
</svg>